<?xml version="1.0" encoding="UTF-8" standalone="no"?>
<svg
   xmlns:osb="http://www.openswatchbook.org/uri/2009/osb"
   xmlns:dc="http://purl.org/dc/elements/1.1/"
   xmlns:cc="http://creativecommons.org/ns#"
   xmlns:rdf="http://www.w3.org/1999/02/22-rdf-syntax-ns#"
   xmlns:svg="http://www.w3.org/2000/svg"
   xmlns="http://www.w3.org/2000/svg"
   xmlns:sodipodi="http://sodipodi.sourceforge.net/DTD/sodipodi-0.dtd"
   xmlns:inkscape="http://www.inkscape.org/namespaces/inkscape"
   width="529.31219mm"
   height="529.31219mm"
   viewBox="0 0 529.31222 529.31222"
   version="1.1"
   id="svg8"
   inkscape:version="1.0.2 (e86c870879, 2021-01-15, custom)"
   sodipodi:docname="todo.svg"
   inkscape:export-filename="C:\Users\linos\Dropbox (Politecnico Di Torino Studenti)\02_Projects\.SITE\smorti.dev\smortilogo.png"
   inkscape:export-xdpi="96"
   inkscape:export-ydpi="96">
  <defs
     id="defs2">
    <linearGradient
       id="linearGradient2801"
       osb:paint="solid">
      <stop
         style="stop-color:#ffffff;stop-opacity:1;"
         offset="0"
         id="stop2799" />
    </linearGradient>
    <filter
       inkscape:collect="always"
       style="color-interpolation-filters:sRGB"
       id="filter879"
       x="-0.00013233532"
       width="1.0002646"
       y="-0.00050910044"
       height="1.0010182">
      <feGaussianBlur
         inkscape:collect="always"
         stdDeviation="0.067238806"
         id="feGaussianBlur881" />
    </filter>
    <filter
       inkscape:collect="always"
       style="color-interpolation-filters:sRGB"
       id="filter883"
       x="-0.00013750965"
       width="1.000275"
       y="-0.00013750965"
       height="1.000275">
      <feGaussianBlur
         inkscape:collect="always"
         stdDeviation="0.11459137"
         id="feGaussianBlur885" />
    </filter>
  </defs>
  <sodipodi:namedview
     id="base"
     pagecolor="#ffffff"
     bordercolor="#666666"
     borderopacity="1.0"
     inkscape:pageopacity="0.0"
     inkscape:pageshadow="2"
     inkscape:zoom="0.24748737"
     inkscape:cx="408.85118"
     inkscape:cy="1058.482"
     inkscape:document-units="mm"
     inkscape:current-layer="layer1"
     inkscape:document-rotation="0"
     showgrid="false"
     inkscape:window-width="1406"
     inkscape:window-height="1041"
     inkscape:window-x="2168"
     inkscape:window-y="0"
     inkscape:window-maximized="0" />
  <metadata
     id="metadata5">
    <rdf:RDF>
      <cc:Work
         rdf:about="">
        <dc:format>image/svg+xml</dc:format>
        <dc:type
           rdf:resource="http://purl.org/dc/dcmitype/StillImage" />
        <dc:title></dc:title>
      </cc:Work>
    </rdf:RDF>
  </metadata>
  <g
     inkscape:label="Livello 1"
     inkscape:groupmode="layer"
     id="layer1"
     transform="translate(457.48296,404.9554)">
    <path
       id="rect889"
       style="opacity:0.99;fill:#ffffff;stroke-width:0.844981"
       d="M 467.38867 387.44336 L 467.38867 577.67578 C 467.38867 601.13772 471.82759 617.94024 480.70508 628.08594 C 489.89962 637.91459 501.62909 642.83008 515.89648 642.83008 C 530.48093 642.83008 542.21236 637.91459 551.08984 628.08594 C 560.28439 617.94024 564.88086 601.13772 564.88086 577.67578 L 564.88086 485.41211 L 670.46094 485.41211 L 670.46094 866.82812 L 605.30664 866.82812 C 581.84471 866.82813 565.04023 871.4246 554.89453 880.61914 C 545.06588 889.49663 540.15234 901.06855 540.15234 915.33594 C 540.15234 929.92038 545.06588 941.81132 554.89453 951.00586 C 565.04023 959.88335 581.84471 964.32031 605.30664 964.32031 L 833.58398 964.32031 C 857.04592 964.32031 873.69088 959.88335 883.51953 951.00586 C 893.66523 941.81132 898.73828 930.07989 898.73828 915.8125 C 898.73828 901.22805 893.66523 889.49663 883.51953 880.61914 C 873.69088 871.4246 857.04592 866.82812 833.58398 866.82812 L 767.95508 866.82812 L 767.95508 485.41211 L 874.95898 485.41211 L 874.95898 577.67578 C 874.95898 601.13772 879.3979 617.94024 888.27539 628.08594 C 897.46993 637.91459 909.20136 642.83008 923.46875 642.83008 C 938.0532 642.83008 949.78462 637.91459 958.66211 628.08594 C 967.85665 617.94024 972.45313 601.13772 972.45312 577.67578 L 972.45312 387.91797 L 467.38867 387.44336 z M 1305.8359 519.6543 C 1261.7655 519.6543 1219.4383 530.43453 1178.8555 551.99414 C 1138.5897 573.55376 1107.6768 603.19841 1086.1172 640.92773 C 1064.5576 678.34001 1053.7773 716.54348 1053.7773 755.54102 C 1053.7773 793.90445 1064.3981 830.68405 1085.6406 865.87695 C 1106.8832 901.06985 1137.7961 928.96967 1178.3789 949.57812 C 1218.9617 969.86953 1261.4485 980.01563 1305.8359 980.01562 C 1350.5404 980.01563 1393.3423 969.71197 1434.2422 949.10352 C 1475.4591 928.17801 1506.372 900.27624 1526.9805 865.40039 C 1547.906 830.20749 1558.3672 793.90446 1558.3672 756.49219 C 1558.3672 717.1776 1547.906 678.97413 1526.9805 641.87891 C 1506.055 604.46663 1474.9825 574.82198 1433.7656 552.94531 C 1392.8658 530.75159 1350.2234 519.6543 1305.8359 519.6543 z M 1305.8359 617.14844 C 1355.9303 617.14844 1396.3533 634.90216 1427.1074 670.41211 C 1449.6182 696.72752 1460.873 725.58049 1460.873 756.96875 C 1460.873 787.72291 1445.9729 816.41636 1416.1699 843.04883 C 1386.3669 869.36424 1349.5893 882.52148 1305.8359 882.52148 C 1262.3997 882.52148 1225.7796 869.36424 1195.9766 843.04883 C 1166.1736 816.41636 1151.2715 787.88046 1151.2715 757.44336 C 1151.2715 720.34814 1166.0141 687.69234 1195.5 659.47461 C 1224.9859 631.25688 1261.7655 617.14844 1305.8359 617.14844 z M 507.33594 1020.5352 C 483.874 1020.5352 467.07148 1025.1316 456.92578 1034.3262 C 447.09713 1043.2037 442.18164 1054.9351 442.18164 1069.5195 C 442.18164 1083.7869 447.09713 1095.5183 456.92578 1104.7129 C 466.75443 1113.5904 481.97162 1118.1869 502.58008 1118.5039 L 502.58008 1499.9199 C 482.28868 1499.6029 467.07148 1504.0398 456.92578 1513.2344 C 447.09713 1522.4289 442.18164 1534.1603 442.18164 1548.4277 C 442.18164 1563.0122 447.09713 1574.9031 456.92578 1584.0977 C 467.07148 1592.9751 483.874 1597.4121 507.33594 1597.4121 L 703.27539 1597.4121 C 753.68684 1597.4121 794.74586 1589.962 826.45117 1575.0605 C 846.42552 1565.549 867.66696 1550.8064 890.17773 1530.832 C 913.00556 1510.5406 931.39536 1484.5413 945.3457 1452.8359 C 959.29604 1420.8136 966.27148 1384.1954 966.27148 1342.9785 L 966.27148 1296.3711 C 966.27148 1262.4464 962.4667 1233.7529 954.85742 1210.291 C 947.24815 1186.8291 935.83379 1163.2087 920.61523 1139.4297 C 905.71374 1115.6507 891.28823 1096.9438 877.33789 1083.3105 C 858.94881 1065.2385 834.53476 1050.3384 804.09766 1038.6074 C 773.97761 1026.8765 743.06469 1021.0098 711.35938 1021.0098 L 507.33594 1020.5352 z M 600.07422 1118.5039 L 702.80078 1118.5039 C 737.35958 1118.5039 766.05108 1125.3198 788.87891 1138.9531 C 812.02379 1152.2694 832.79256 1177.0005 851.18164 1213.1445 C 862.91261 1236.2894 868.77734 1263.238 868.77734 1293.9922 L 868.77734 1340.125 C 868.77734 1375.952 862.27848 1405.1201 849.2793 1427.6309 C 836.28012 1450.1416 816.93912 1468.689 791.25781 1483.2734 C 771.60052 1494.3703 742.43244 1499.9199 703.75195 1499.9199 L 600.07422 1499.9199 L 600.07422 1118.5039 z M 1305.8359 1152.7461 C 1261.7655 1152.7461 1219.4383 1163.5263 1178.8555 1185.0859 C 1138.5897 1206.6456 1107.6768 1236.2902 1086.1172 1274.0195 C 1064.5576 1311.4318 1053.7773 1349.6353 1053.7773 1388.6328 C 1053.7773 1426.9962 1064.3981 1463.7758 1085.6406 1498.9688 C 1106.8832 1534.1617 1137.7961 1562.0615 1178.3789 1582.6699 C 1218.9617 1602.9613 1261.4485 1613.1074 1305.8359 1613.1074 C 1350.5404 1613.1074 1393.3423 1602.8038 1434.2422 1582.1953 C 1475.4591 1561.2698 1506.372 1533.368 1526.9805 1498.4922 C 1547.906 1463.2993 1558.3672 1426.9963 1558.3672 1389.584 C 1558.3672 1350.2694 1547.906 1312.0659 1526.9805 1274.9707 C 1506.055 1237.5584 1474.9825 1207.9138 1433.7656 1186.0371 C 1392.8658 1163.8434 1350.2234 1152.7461 1305.8359 1152.7461 z M 1305.8359 1250.2402 C 1355.9303 1250.2402 1396.3533 1267.994 1427.1074 1303.5039 C 1449.6182 1329.8193 1460.873 1358.6723 1460.873 1390.0605 C 1460.873 1420.8147 1445.9729 1449.5082 1416.1699 1476.1406 C 1386.3669 1502.456 1349.5893 1515.6133 1305.8359 1515.6133 C 1262.3997 1515.6133 1225.7796 1502.456 1195.9766 1476.1406 C 1166.1736 1449.5082 1151.2715 1420.9723 1151.2715 1390.5352 C 1151.2715 1353.4399 1166.0141 1320.7841 1195.5 1292.5664 C 1224.9859 1264.3487 1261.7655 1250.2402 1305.8359 1250.2402 z "
       transform="matrix(0.26458333,0,0,0.26458333,-457.48296,-404.9554)" />
    <path
       id="rect845"
       style="opacity:0.99;fill:#ffffff;stroke-width:0.483375;filter:url(#filter883)"
       d="M 197.99023,0 C 88.303838,0 0,88.303838 0,197.99023 V 1802.0098 C 0,1911.6962 88.303838,2000 197.99023,2000 H 1802.0098 C 1911.6962,2000 2000,1911.6962 2000,1802.0098 V 197.99023 C 2000,88.303838 1911.6962,0 1802.0098,0 Z m 48.60938,60.609375 H 1753.4004 c 103.0384,0 185.9902,82.951835 185.9902,185.990235 V 1753.4004 c 0,103.0384 -82.9518,185.9902 -185.9902,185.9902 H 246.59961 c -103.0384,0 -185.990235,-82.9518 -185.990235,-185.9902 V 246.59961 c 0,-103.0384 82.951835,-185.990235 185.990235,-185.990235 z"
       transform="matrix(0.26458333,0,0,0.26458333,-457.41019,-404.88263)" />
  </g>
</svg>
